<mxfile host="app.diagrams.net" agent="Mozilla/5.0 (Windows NT 10.0; Win64; x64) AppleWebKit/537.36 (KHTML, like Gecko) Chrome/134.0.0.0 Safari/537.36 Edg/134.0.0.0" version="26.1.1">
  <diagram name="DFD y Secuencia" id="yhL26agIUZNDAliOvnx5">
    <mxGraphModel dx="1744" dy="954" grid="1" gridSize="10" guides="1" tooltips="1" connect="1" arrows="1" fold="1" page="1" pageScale="1" pageWidth="827" pageHeight="1169" background="#E6D0DE" math="0" shadow="0">
      <root>
        <object label="" id="0">
          <mxCell />
        </object>
        <mxCell id="1" parent="0" />
        <mxCell id="hx3eGstLHMkpw4XkZy-y-1" value="End" style="ellipse;whiteSpace=wrap;html=1;fillColor=#d5e8d4;strokeColor=#82b366;" parent="1" vertex="1">
          <mxGeometry x="120" y="140" width="120" height="80" as="geometry" />
        </mxCell>
        <mxCell id="hx3eGstLHMkpw4XkZy-y-11" value="Sistema de Instrumentos Musicales online" style="strokeWidth=2;html=1;shape=mxgraph.flowchart.decision;whiteSpace=wrap;fillColor=#dae8fc;strokeColor=#6c8ebf;" parent="1" vertex="1">
          <mxGeometry x="250" y="340" width="160" height="130" as="geometry" />
        </mxCell>
        <mxCell id="hx3eGstLHMkpw4XkZy-y-12" value="Pasarela de pago" style="strokeWidth=2;html=1;shape=mxgraph.flowchart.decision;whiteSpace=wrap;fillColor=#dae8fc;strokeColor=#6c8ebf;" parent="1" vertex="1">
          <mxGeometry x="475" y="960" width="170" height="140" as="geometry" />
        </mxCell>
        <mxCell id="kS9vBC88zHyn8X4vNAOb-3" value="" style="edgeStyle=orthogonalEdgeStyle;rounded=0;orthogonalLoop=1;jettySize=auto;html=1;" edge="1" parent="1" source="hx3eGstLHMkpw4XkZy-y-13" target="hx3eGstLHMkpw4XkZy-y-14">
          <mxGeometry relative="1" as="geometry">
            <Array as="points">
              <mxPoint x="587" y="240" />
              <mxPoint x="587" y="260" />
            </Array>
          </mxGeometry>
        </mxCell>
        <mxCell id="hx3eGstLHMkpw4XkZy-y-13" value="C" style="rounded=0;whiteSpace=wrap;html=1;fillColor=#ffe6cc;strokeColor=#d79b00;" parent="1" vertex="1">
          <mxGeometry x="414" y="230" width="120" height="60" as="geometry" />
        </mxCell>
        <mxCell id="hx3eGstLHMkpw4XkZy-y-14" value="Gestion de pedidos" style="rounded=0;whiteSpace=wrap;html=1;fillColor=#ffe6cc;strokeColor=#d79b00;" parent="1" vertex="1">
          <mxGeometry x="640" y="230" width="120" height="60" as="geometry" />
        </mxCell>
        <mxCell id="kS9vBC88zHyn8X4vNAOb-32" value="" style="edgeStyle=orthogonalEdgeStyle;rounded=0;orthogonalLoop=1;jettySize=auto;html=1;" edge="1" parent="1" source="hx3eGstLHMkpw4XkZy-y-15" target="hx3eGstLHMkpw4XkZy-y-20">
          <mxGeometry relative="1" as="geometry" />
        </mxCell>
        <mxCell id="hx3eGstLHMkpw4XkZy-y-15" value="Procesamiento de pago" style="rounded=0;whiteSpace=wrap;html=1;fillColor=#ffe6cc;strokeColor=#d79b00;" parent="1" vertex="1">
          <mxGeometry x="510" y="370" width="120" height="60" as="geometry" />
        </mxCell>
        <mxCell id="hx3eGstLHMkpw4XkZy-y-16" value="Administrador" style="rounded=1;whiteSpace=wrap;html=1;fillColor=#f8cecc;strokeColor=#b85450;" parent="1" vertex="1">
          <mxGeometry x="120" y="280" width="120" height="60" as="geometry" />
        </mxCell>
        <mxCell id="hx3eGstLHMkpw4XkZy-y-17" value="Proveedor" style="rounded=1;whiteSpace=wrap;html=1;fillColor=#f8cecc;strokeColor=#b85450;" parent="1" vertex="1">
          <mxGeometry x="120" y="640" width="120" height="60" as="geometry" />
        </mxCell>
        <mxCell id="hx3eGstLHMkpw4XkZy-y-18" value="Cliente" style="rounded=1;whiteSpace=wrap;html=1;fillColor=#f8cecc;strokeColor=#b85450;" parent="1" vertex="1">
          <mxGeometry x="440" y="830" width="120" height="60" as="geometry" />
        </mxCell>
        <mxCell id="kS9vBC88zHyn8X4vNAOb-16" value="" style="edgeStyle=orthogonalEdgeStyle;rounded=0;orthogonalLoop=1;jettySize=auto;html=1;entryX=0;entryY=0.25;entryDx=0;entryDy=0;" edge="1" parent="1">
          <mxGeometry relative="1" as="geometry">
            <mxPoint x="330" y="672" as="sourcePoint" />
            <mxPoint x="430" y="667" as="targetPoint" />
            <Array as="points">
              <mxPoint x="330" y="673" />
              <mxPoint x="390" y="673" />
              <mxPoint x="390" y="667" />
            </Array>
          </mxGeometry>
        </mxCell>
        <mxCell id="hx3eGstLHMkpw4XkZy-y-19" value="B" style="rounded=1;whiteSpace=wrap;html=1;fillColor=#f8cecc;strokeColor=#b85450;" parent="1" vertex="1">
          <mxGeometry x="430" y="640" width="120" height="60" as="geometry" />
        </mxCell>
        <mxCell id="hx3eGstLHMkpw4XkZy-y-20" value="Generacion de reportes" style="rounded=1;whiteSpace=wrap;html=1;fillColor=#f8cecc;strokeColor=#b85450;" parent="1" vertex="1">
          <mxGeometry x="720" y="375" width="120" height="60" as="geometry" />
        </mxCell>
        <mxCell id="hx3eGstLHMkpw4XkZy-y-21" value="" style="endArrow=classic;html=1;rounded=0;exitX=0.342;exitY=1;exitDx=0;exitDy=0;exitPerimeter=0;" parent="1" source="hx3eGstLHMkpw4XkZy-y-16" edge="1">
          <mxGeometry relative="1" as="geometry">
            <mxPoint x="110" y="420" as="sourcePoint" />
            <mxPoint x="270" y="420" as="targetPoint" />
            <Array as="points">
              <mxPoint x="160" y="420" />
            </Array>
          </mxGeometry>
        </mxCell>
        <mxCell id="hx3eGstLHMkpw4XkZy-y-25" value="" style="endArrow=classic;html=1;rounded=0;exitX=1;exitY=0.5;exitDx=0;exitDy=0;exitPerimeter=0;" parent="1" source="hx3eGstLHMkpw4XkZy-y-11" edge="1">
          <mxGeometry relative="1" as="geometry">
            <mxPoint x="171" y="350" as="sourcePoint" />
            <mxPoint x="440" y="290" as="targetPoint" />
            <Array as="points">
              <mxPoint x="440" y="405" />
            </Array>
          </mxGeometry>
        </mxCell>
        <mxCell id="kS9vBC88zHyn8X4vNAOb-2" value="" style="endArrow=classic;html=1;rounded=0;exitX=1;exitY=0.5;exitDx=0;exitDy=0;entryX=0;entryY=0.5;entryDx=0;entryDy=0;" edge="1" parent="1" source="hx3eGstLHMkpw4XkZy-y-14" target="hx3eGstLHMkpw4XkZy-y-15">
          <mxGeometry relative="1" as="geometry">
            <mxPoint x="171" y="350" as="sourcePoint" />
            <mxPoint x="530" y="360" as="targetPoint" />
            <Array as="points">
              <mxPoint x="760" y="260" />
              <mxPoint x="790" y="260" />
              <mxPoint x="790" y="320" />
              <mxPoint x="480" y="320" />
              <mxPoint x="480" y="400" />
            </Array>
          </mxGeometry>
        </mxCell>
        <mxCell id="kS9vBC88zHyn8X4vNAOb-5" value="" style="edgeStyle=orthogonalEdgeStyle;rounded=0;orthogonalLoop=1;jettySize=auto;html=1;entryX=0.625;entryY=1.083;entryDx=0;entryDy=0;entryPerimeter=0;" edge="1" parent="1" target="hx3eGstLHMkpw4XkZy-y-14">
          <mxGeometry relative="1" as="geometry">
            <mxPoint x="330" y="490" as="sourcePoint" />
            <mxPoint x="690" y="480" as="targetPoint" />
            <Array as="points">
              <mxPoint x="860" y="490" />
              <mxPoint x="860" y="350" />
              <mxPoint x="715" y="350" />
            </Array>
          </mxGeometry>
        </mxCell>
        <mxCell id="kS9vBC88zHyn8X4vNAOb-6" value="" style="endArrow=classic;html=1;rounded=0;entryX=0.5;entryY=1;entryDx=0;entryDy=0;entryPerimeter=0;" edge="1" parent="1" target="hx3eGstLHMkpw4XkZy-y-11">
          <mxGeometry relative="1" as="geometry">
            <mxPoint x="330" y="550" as="sourcePoint" />
            <mxPoint x="330" y="550" as="targetPoint" />
            <Array as="points" />
          </mxGeometry>
        </mxCell>
        <mxCell id="kS9vBC88zHyn8X4vNAOb-7" value="" style="endArrow=classic;html=1;rounded=0;" edge="1" parent="1">
          <mxGeometry relative="1" as="geometry">
            <mxPoint x="370" y="860" as="sourcePoint" />
            <mxPoint x="440" y="860" as="targetPoint" />
            <Array as="points">
              <mxPoint x="331" y="860.5" />
            </Array>
          </mxGeometry>
        </mxCell>
        <mxCell id="kS9vBC88zHyn8X4vNAOb-10" value="&lt;h1 style=&quot;margin-top: 0px;&quot;&gt;&lt;span style=&quot;font-weight: normal;&quot;&gt;&lt;font style=&quot;font-size: 12px;&quot;&gt;Solicitud de inventario&lt;/font&gt;&lt;/span&gt;&lt;/h1&gt;" style="text;html=1;whiteSpace=wrap;overflow=hidden;rounded=0;" vertex="1" parent="1">
          <mxGeometry x="190" y="520" width="130" height="40" as="geometry" />
        </mxCell>
        <mxCell id="kS9vBC88zHyn8X4vNAOb-11" value="&lt;h1 style=&quot;margin-top: 0px;&quot;&gt;&lt;span style=&quot;font-weight: normal;&quot;&gt;&lt;font style=&quot;font-size: 12px;&quot;&gt;Suministra inventario&lt;/font&gt;&lt;/span&gt;&lt;/h1&gt;" style="text;html=1;whiteSpace=wrap;overflow=hidden;rounded=0;" vertex="1" parent="1">
          <mxGeometry x="340" y="530" width="120" height="30" as="geometry" />
        </mxCell>
        <mxCell id="kS9vBC88zHyn8X4vNAOb-12" value="" style="endArrow=classic;html=1;rounded=0;exitX=0.342;exitY=1;exitDx=0;exitDy=0;exitPerimeter=0;entryX=0;entryY=0.367;entryDx=0;entryDy=0;entryPerimeter=0;" edge="1" parent="1" target="hx3eGstLHMkpw4XkZy-y-17">
          <mxGeometry relative="1" as="geometry">
            <mxPoint x="91" y="570" as="sourcePoint" />
            <mxPoint x="90" y="670" as="targetPoint" />
            <Array as="points">
              <mxPoint x="90" y="662" />
            </Array>
          </mxGeometry>
        </mxCell>
        <mxCell id="kS9vBC88zHyn8X4vNAOb-17" value="" style="endArrow=none;html=1;rounded=0;" edge="1" parent="1">
          <mxGeometry width="50" height="50" relative="1" as="geometry">
            <mxPoint x="330" y="680" as="sourcePoint" />
            <mxPoint x="330" y="570" as="targetPoint" />
          </mxGeometry>
        </mxCell>
        <mxCell id="kS9vBC88zHyn8X4vNAOb-18" value="" style="endArrow=none;html=1;rounded=0;entryX=1.017;entryY=0.633;entryDx=0;entryDy=0;entryPerimeter=0;" edge="1" parent="1" target="hx3eGstLHMkpw4XkZy-y-17">
          <mxGeometry width="50" height="50" relative="1" as="geometry">
            <mxPoint x="330" y="670" as="sourcePoint" />
            <mxPoint x="300" y="615" as="targetPoint" />
          </mxGeometry>
        </mxCell>
        <mxCell id="kS9vBC88zHyn8X4vNAOb-19" value="&lt;h1 style=&quot;margin-top: 0px;&quot;&gt;&lt;span style=&quot;font-size: 12px; font-weight: 400;&quot;&gt;Confirmación de pedido&lt;/span&gt;&lt;/h1&gt;" style="text;html=1;whiteSpace=wrap;overflow=hidden;rounded=0;" vertex="1" parent="1">
          <mxGeometry x="333" y="720" width="134" height="40" as="geometry" />
        </mxCell>
        <mxCell id="kS9vBC88zHyn8X4vNAOb-21" value="&lt;h1 style=&quot;margin-top: 0px;&quot;&gt;&lt;span style=&quot;font-size: 12px; font-weight: 400;&quot;&gt;Proceso de pago&lt;/span&gt;&lt;/h1&gt;" style="text;html=1;whiteSpace=wrap;overflow=hidden;rounded=0;" vertex="1" parent="1">
          <mxGeometry x="347" y="800" width="134" height="40" as="geometry" />
        </mxCell>
        <mxCell id="kS9vBC88zHyn8X4vNAOb-22" value="" style="endArrow=none;html=1;rounded=0;" edge="1" parent="1">
          <mxGeometry width="50" height="50" relative="1" as="geometry">
            <mxPoint x="620" y="1075" as="sourcePoint" />
            <mxPoint x="329.5" y="730" as="targetPoint" />
            <Array as="points">
              <mxPoint x="620" y="1050" />
              <mxPoint x="620" y="1075" />
              <mxPoint x="640" y="1075" />
              <mxPoint x="640" y="1115" />
              <mxPoint x="330" y="1115" />
            </Array>
          </mxGeometry>
        </mxCell>
        <mxCell id="kS9vBC88zHyn8X4vNAOb-24" value="" style="endArrow=none;html=1;rounded=0;exitX=1;exitY=0.5;exitDx=0;exitDy=0;" edge="1" parent="1" source="hx3eGstLHMkpw4XkZy-y-18">
          <mxGeometry width="50" height="50" relative="1" as="geometry">
            <mxPoint x="570" y="860" as="sourcePoint" />
            <mxPoint x="570" y="490" as="targetPoint" />
            <Array as="points">
              <mxPoint x="580" y="860" />
            </Array>
          </mxGeometry>
        </mxCell>
        <mxCell id="kS9vBC88zHyn8X4vNAOb-25" value="" style="endArrow=classic;html=1;rounded=0;" edge="1" parent="1">
          <mxGeometry relative="1" as="geometry">
            <mxPoint x="330" y="890" as="sourcePoint" />
            <mxPoint x="480" y="1030" as="targetPoint" />
            <Array as="points">
              <mxPoint x="330" y="1030" />
            </Array>
          </mxGeometry>
        </mxCell>
        <mxCell id="kS9vBC88zHyn8X4vNAOb-26" value="" style="endArrow=none;html=1;rounded=0;" edge="1" parent="1">
          <mxGeometry width="50" height="50" relative="1" as="geometry">
            <mxPoint x="620" y="1010" as="sourcePoint" />
            <mxPoint x="630" y="910" as="targetPoint" />
            <Array as="points">
              <mxPoint x="620" y="990" />
              <mxPoint x="640" y="990" />
            </Array>
          </mxGeometry>
        </mxCell>
        <mxCell id="kS9vBC88zHyn8X4vNAOb-27" value="Text" style="edgeLabel;html=1;align=center;verticalAlign=middle;resizable=0;points=[];" vertex="1" connectable="0" parent="kS9vBC88zHyn8X4vNAOb-26">
          <mxGeometry x="0.4827" relative="1" as="geometry">
            <mxPoint as="offset" />
          </mxGeometry>
        </mxCell>
        <mxCell id="kS9vBC88zHyn8X4vNAOb-28" value="&lt;h1 style=&quot;margin-top: 0px;&quot;&gt;&lt;span style=&quot;font-size: 12px; font-weight: 400;&quot;&gt;Confirmación de pago&lt;/span&gt;&lt;/h1&gt;" style="text;html=1;whiteSpace=wrap;overflow=hidden;rounded=0;" vertex="1" parent="1">
          <mxGeometry x="340" y="950" width="134" height="40" as="geometry" />
        </mxCell>
        <mxCell id="kS9vBC88zHyn8X4vNAOb-30" value="" style="endArrow=classic;html=1;rounded=0;entryX=0.864;entryY=1.011;entryDx=0;entryDy=0;entryPerimeter=0;" edge="1" parent="1" target="hx3eGstLHMkpw4XkZy-y-15">
          <mxGeometry width="50" height="50" relative="1" as="geometry">
            <mxPoint x="630" y="910" as="sourcePoint" />
            <mxPoint x="650" y="820" as="targetPoint" />
          </mxGeometry>
        </mxCell>
        <mxCell id="kS9vBC88zHyn8X4vNAOb-33" value="&lt;font face=&quot;Helvetica&quot; style=&quot;font-size: 12px;&quot;&gt;Diagrama de flujo de datos&amp;nbsp;&lt;/font&gt;" style="rounded=0;whiteSpace=wrap;html=1;" vertex="1" parent="1">
          <mxGeometry x="240" y="30" width="340" height="90" as="geometry" />
        </mxCell>
      </root>
    </mxGraphModel>
  </diagram>
</mxfile>
